<?xml version="1.0" standalone="no"?>
<!DOCTYPE svg PUBLIC "-//W3C//DTD SVG 20010904//EN"
 "http://www.w3.org/TR/2001/REC-SVG-20010904/DTD/svg10.dtd">
<svg version="1.0" xmlns="http://www.w3.org/2000/svg"
 width="512.000000pt" height="512.000000pt" viewBox="0 0 512.000000 512.000000"
 preserveAspectRatio="xMidYMid meet">

<g transform="translate(0.000000,512.000000) scale(0.100000,-0.100000)"
fill="#000000" stroke="none">
<path d="M2325 4966 c-119 -39 -216 -123 -268 -233 l-32 -68 -3 -198 c-3 -180
-2 -203 18 -261 26 -78 84 -162 139 -200 31 -22 40 -34 36 -50 -2 -11 -7 -56
-10 -98 -6 -71 -5 -77 15 -88 61 -33 83 5 95 161 l7 96 -27 19 c-65 45 -117
100 -142 153 -28 55 -28 58 -28 251 0 185 1 197 24 240 32 61 96 126 156 158
47 25 58 27 185 27 127 0 138 -2 185 -27 71 -37 137 -112 164 -183 21 -55 22
-74 19 -235 -3 -168 -4 -177 -31 -232 -26 -53 -45 -74 -141 -151 l-30 -24 12
-116 c6 -64 18 -129 26 -144 33 -64 92 -97 196 -108 289 -30 903 -116 1204
-169 96 -17 131 -45 130 -104 -2 -76 -76 -172 -164 -211 -64 -29 -116 -27
-548 24 -209 25 -394 45 -411 45 -56 0 -61 -21 -61 -242 0 -212 4 -228 54
-228 44 0 49 21 54 196 4 152 6 164 23 164 10 0 191 -20 402 -45 427 -50 441
-50 553 5 137 67 232 240 194 355 -17 52 -64 101 -113 119 -81 30 -861 146
-1252 187 -60 6 -122 17 -137 25 -30 15 -43 51 -51 144 -5 53 -4 56 29 80 58
42 122 135 145 210 18 61 20 89 17 262 l-3 193 -32 68 c-42 89 -121 168 -210
210 -65 31 -73 32 -208 34 -94 2 -153 -2 -180 -11z"/>
<path d="M200 4807 c-15 -7 -26 -23 -28 -37 -6 -57 -26 -55 522 -60 l504 -5
43 -30 c58 -41 755 -916 737 -926 -7 -3 -62 -12 -123 -18 -331 -35 -1054 -150
-1103 -175 -39 -20 -77 -67 -92 -112 -37 -111 53 -280 187 -352 107 -57 122
-57 571 -5 221 25 404 44 406 42 2 -2 7 -150 11 -329 l7 -325 -283 -264 c-156
-145 -288 -275 -294 -288 -13 -33 5 -58 42 -58 26 0 97 63 496 435 257 239
469 442 473 452 13 42 -40 82 -76 56 -10 -7 -73 -64 -139 -127 l-121 -113 0
314 c0 348 -2 358 -61 358 -17 0 -202 -20 -411 -45 -209 -25 -408 -45 -442
-45 -75 0 -145 31 -198 86 -35 37 -77 114 -78 142 0 29 33 81 58 91 64 25
1146 182 1246 181 14 0 39 -23 74 -65 59 -73 89 -83 118 -40 15 23 15 27 0 51
-37 56 -842 1062 -889 1111 -30 31 -74 63 -111 80 l-61 28 -480 3 c-378 2
-485 0 -505 -11z"/>
<path d="M200 4507 c-27 -13 -37 -52 -20 -77 8 -13 68 -15 418 -18 258 -2 419
1 436 7 19 8 26 17 26 38 0 60 18 58 -427 61 -316 2 -414 -1 -433 -11z"/>
<path d="M186 4194 c-19 -18 -21 -55 -4 -72 8 -8 58 -12 158 -12 100 0 150 4
158 12 19 19 15 66 -7 78 -11 5 -80 10 -155 10 -109 0 -138 -3 -150 -16z"/>
<path d="M750 4190 c-24 -24 -25 -43 -4 -64 12 -13 41 -16 153 -16 93 0 141 4
149 12 19 19 15 66 -7 78 -11 5 -76 10 -145 10 -113 0 -128 -2 -146 -20z"/>
<path d="M4675 2898 c-51 -18 -97 -59 -117 -106 -28 -62 -22 -145 15 -201 18
-27 27 -54 27 -80 0 -54 7 -69 42 -87 37 -19 60 -12 95 30 16 19 52 44 80 56
133 56 171 187 90 307 -53 79 -145 111 -232 81z"/>
<path d="M4009 2831 c-50 -16 -71 -33 -90 -74 -51 -112 8 -217 121 -217 49 0
84 17 124 59 24 25 30 42 34 88 3 48 0 63 -18 86 -38 48 -117 75 -171 58z"/>
<path d="M2832 2724 c-16 -11 -22 -24 -20 -42 3 -23 18 -34 116 -82 l112 -54
0 -402 c0 -220 -3 -727 -7 -1125 l-6 -724 -29 -29 c-25 -24 -35 -28 -68 -23
-112 15 -240 123 -271 229 -5 18 -16 344 -25 723 -9 442 -19 700 -26 718 -41
103 -195 103 -236 0 -7 -18 -17 -274 -26 -718 -13 -586 -18 -697 -32 -738 -33
-96 -161 -200 -263 -214 -35 -5 -44 -2 -69 23 l-29 29 -6 685 c-4 377 -7 807
-7 956 0 256 -1 272 -20 289 -27 24 -68 13 -76 -22 -4 -15 -5 -453 -1 -974 5
-917 6 -948 25 -985 56 -111 173 -134 317 -63 86 42 172 125 209 200 39 80 43
153 56 859 6 338 14 623 16 633 7 22 41 22 48 0 2 -10 10 -299 16 -643 13
-717 16 -767 56 -848 81 -167 317 -287 440 -224 48 25 69 47 90 97 15 36 17
148 22 1137 4 812 8 1098 16 1098 7 0 133 -56 280 -125 147 -69 274 -125 281
-125 34 0 59 66 33 88 -14 11 -877 412 -887 412 -4 0 -17 -7 -29 -16z"/>
<path d="M4130 2322 c-127 -43 -208 -108 -254 -206 -31 -66 -49 -173 -40 -242
4 -39 2 -61 -12 -89 -24 -51 -51 -61 -110 -41 -60 20 -104 20 -152 0 -113 -47
-167 -182 -128 -318 34 -114 159 -199 270 -182 96 16 187 101 207 195 7 31 19
62 27 69 22 17 81 15 133 -4 27 -10 78 -17 134 -18 82 -1 94 -4 133 -30 88
-60 203 -39 260 47 23 34 27 52 28 111 0 54 6 83 25 121 21 43 24 64 24 155 0
103 -1 107 -42 191 -53 108 -125 189 -201 226 -74 36 -216 43 -302 15z"/>
<path d="M4592 1270 c-95 -58 -97 -216 -3 -265 139 -71 301 99 212 223 -43 60
-145 81 -209 42z"/>
</g>
</svg>
