<?xml version="1.0" standalone="no"?>
<!DOCTYPE svg PUBLIC "-//W3C//DTD SVG 20010904//EN"
 "http://www.w3.org/TR/2001/REC-SVG-20010904/DTD/svg10.dtd">
<svg version="1.0" xmlns="http://www.w3.org/2000/svg"
 width="512.000000pt" height="512.000000pt" viewBox="0 0 512.000000 512.000000"
 preserveAspectRatio="xMidYMid meet">

<g transform="translate(0.000000,512.000000) scale(0.100000,-0.100000)"
fill="#000000" stroke="none">
<path d="M2516 4854 c-12 -11 -16 -36 -16 -90 l0 -74 -233 0 c-265 0 -307 -7
-374 -65 -23 -19 -52 -56 -65 -83 -22 -44 -23 -61 -28 -295 l-5 -247 -54 36
c-224 151 -540 184 -797 85 -127 -49 -211 -106 -314 -210 -109 -111 -163 -198
-209 -336 -39 -117 -51 -212 -51 -398 l-1 -152 -44 -28 c-90 -57 -122 -193
-71 -302 23 -50 78 -107 122 -127 22 -10 24 -17 24 -82 0 -92 30 -234 68 -323
63 -150 196 -311 322 -389 l61 -37 -3 -134 -3 -134 -257 -111 c-246 -105 -261
-113 -326 -173 -78 -72 -124 -149 -147 -246 -22 -95 -22 -635 1 -667 l15 -22
1163 0 c1070 0 1165 1 1177 17 11 12 15 77 17 299 l3 284 1167 2 1167 3 51 27
c29 15 66 44 83 65 65 78 61 -31 61 1823 0 1907 7 1754 -80 1840 -69 70 -111
80 -337 80 l-183 0 0 80 c0 68 -3 81 -19 90 -13 7 -326 10 -945 10 -827 0
-926 -2 -940 -16z m-16 -346 c0 -109 -103 -98 958 -98 1061 0 962 -10 962 97
l0 63 188 0 c209 0 232 -6 272 -72 20 -33 20 -54 20 -1728 0 -1674 0 -1695
-20 -1728 -11 -18 -34 -41 -52 -52 -32 -20 -53 -20 -1198 -20 l-1165 1 -29 63
c-33 76 -106 161 -173 204 -26 16 -114 58 -195 93 l-148 62 0 263 0 263 49 65
c100 132 157 293 168 471 l6 100 42 26 c80 50 124 131 124 229 1 90 -51 175
-126 207 l-33 13 0 138 c0 301 -47 470 -181 655 l-49 67 0 288 c0 269 1 289
20 320 11 18 34 41 52 52 31 18 51 20 271 20 l237 0 0 -62z m-1595 -1318 c4
-6 39 -32 78 -59 251 -169 582 -254 927 -237 74 3 156 9 182 12 41 6 50 3 72
-19 22 -22 26 -35 26 -81 0 -68 -30 -108 -107 -142 -61 -27 -60 -24 -66 -189
-6 -135 -26 -217 -83 -325 -93 -179 -274 -322 -474 -377 -90 -24 -290 -24
-380 1 -202 55 -380 197 -474 376 -58 111 -78 190 -83 335 -6 145 -14 169 -63
179 -18 3 -50 23 -71 45 -36 36 -39 43 -39 95 0 48 4 61 26 82 23 23 27 25 42
11 27 -23 139 -77 162 -77 12 0 31 11 44 23 22 22 24 36 30 153 4 71 9 146 12
167 l6 37 113 0 c66 0 116 -4 120 -10z m890 -1738 c-3 -3 -16 0 -30 6 l-25 12
0 147 0 147 28 22 27 22 3 -175 c1 -97 0 -178 -3 -181z m-175 139 l0 -108 -67
-21 c-38 -12 -97 -26 -133 -32 -125 -19 -252 -9 -382 32 l-68 21 0 99 c0 91 2
100 18 93 93 -39 293 -56 417 -36 42 7 106 23 143 36 37 13 68 24 70 24 1 1 2
-48 2 -108z m-634 -240 c172 -66 430 -66 619 -1 l59 20 266 -112 c251 -107
268 -115 320 -168 61 -60 96 -124 110 -202 6 -28 10 -156 10 -284 l0 -234
-1076 0 -1075 0 3 273 3 272 31 65 c32 68 96 140 148 167 47 25 510 222 521
223 6 0 33 -9 61 -19z"/>
<path d="M2744 4045 c-127 -28 -268 -107 -348 -196 -301 -335 -197 -857 209
-1044 101 -47 166 -60 285 -59 187 2 335 68 466 207 125 132 179 272 177 457
0 84 -6 121 -27 185 -105 326 -436 521 -762 450z m249 -120 c302 -64 489 -380
400 -679 -26 -89 -64 -149 -138 -223 -298 -298 -795 -159 -900 252 -45 178 10
371 145 505 133 134 306 185 493 145z"/>
<path d="M2950 3475 l-206 -205 -69 70 c-57 58 -75 70 -102 70 -32 0 -63 -28
-63 -59 0 -8 48 -63 107 -122 80 -81 113 -109 132 -109 19 0 78 53 258 233
202 202 233 237 233 263 0 17 -8 38 -18 47 -41 37 -57 25 -272 -188z"/>
<path d="M3702 3898 c-17 -17 -15 -73 2 -87 8 -7 36 -11 62 -9 40 2 51 7 63
29 13 24 13 29 -2 53 -15 22 -25 26 -65 26 -27 0 -53 -5 -60 -12z"/>
<path d="M3997 3892 c-21 -23 -22 -56 -1 -76 13 -14 51 -16 258 -16 175 0 245
3 254 12 20 20 15 76 -7 88 -12 6 -112 10 -254 10 -214 0 -235 -2 -250 -18z"/>
<path d="M3702 3398 c-16 -16 -15 -73 2 -87 9 -8 86 -11 257 -9 l243 3 15 26
c13 24 13 29 -2 53 l-17 26 -243 0 c-176 0 -246 -3 -255 -12z"/>
<path d="M4387 3392 c-19 -21 -21 -45 -7 -73 9 -15 22 -19 63 -19 29 0 58 5
65 12 20 20 15 76 -7 88 -32 17 -96 12 -114 -8z"/>
<path d="M3574 2875 c-14 -21 -15 -31 -6 -51 15 -32 49 -44 127 -44 78 0 112
12 127 44 9 20 8 30 -6 51 -16 24 -20 25 -121 25 -101 0 -105 -1 -121 -25z"/>
<path d="M3987 2882 c-21 -23 -22 -52 -3 -78 13 -18 30 -19 248 -22 264 -3
281 1 286 58 6 58 -3 60 -273 60 -222 0 -243 -2 -258 -18z"/>
<path d="M2403 2224 c-15 -24 -15 -29 -2 -53 l15 -26 201 -3 c218 -3 233 1
233 52 0 51 -20 56 -233 56 l-197 0 -17 -26z"/>
<path d="M3003 2224 c-15 -24 -15 -29 -2 -53 13 -23 22 -26 73 -29 66 -3 86 8
86 49 0 43 -24 59 -85 59 -48 0 -57 -3 -72 -26z"/>
<path d="M3278 2239 c-21 -12 -24 -69 -6 -87 9 -9 120 -12 440 -12 l428 0 17
26 c15 24 15 29 2 53 l-15 26 -424 2 c-276 2 -431 -1 -442 -8z"/>
<path d="M4276 2234 c-9 -8 -16 -26 -16 -39 0 -46 23 -55 134 -55 113 0 126 6
126 57 0 45 -21 53 -134 53 -73 0 -98 -4 -110 -16z"/>
<path d="M2403 1624 c-15 -24 -15 -29 -2 -53 l15 -26 359 -3 c330 -2 361 -1
373 15 17 23 15 58 -4 77 -13 14 -61 16 -369 16 l-355 0 -17 -26z"/>
<path d="M3327 1632 c-22 -24 -21 -55 1 -75 16 -15 46 -17 208 -17 135 0 194
4 202 12 20 20 15 76 -7 88 -12 6 -96 10 -204 10 -165 0 -186 -2 -200 -18z"/>
<path d="M3822 1638 c-7 -7 -12 -26 -12 -43 0 -43 16 -55 76 -55 57 0 77 14
77 55 0 41 -20 55 -77 55 -29 0 -57 -5 -64 -12z"/>
<path d="M4083 1638 c-21 -27 -23 -51 -8 -74 15 -24 16 -24 218 -24 221 0 227
2 227 55 0 17 -5 36 -12 43 -17 17 -412 17 -425 0z"/>
</g>
</svg>
